<?xml version="1.0" standalone="no"?>
<!DOCTYPE svg PUBLIC "-//W3C//DTD SVG 20010904//EN"
 "http://www.w3.org/TR/2001/REC-SVG-20010904/DTD/svg10.dtd">
<svg version="1.0" xmlns="http://www.w3.org/2000/svg"
 width="1200.000000pt" height="1200.000000pt" viewBox="0 0 1200.000000 1200.000000"
 preserveAspectRatio="xMidYMid meet">

<g transform="translate(0.000000,1200.000000) scale(0.100000,-0.100000)"
fill="#000000" stroke="none">
<path d="M5815 9930 c-619 -29 -1220 -202 -1760 -508 -140 -79 -385 -247 -525
-358 -163 -130 -442 -407 -568 -562 -670 -825 -978 -1830 -881 -2872 5 -58 12
-120 15 -137 l6 -33 -167 -2 -166 -3 252 -370 c225 -329 298 -450 299 -493 0
-7 -124 -195 -275 -417 -151 -222 -275 -406 -275 -409 0 -3 224 -6 498 -6
l497 -1 82 -112 c170 -235 446 -522 683 -712 581 -465 1262 -751 2010 -844
339 -42 781 -29 1146 34 815 142 1590 559 2168 1166 114 120 281 322 343 414
l36 55 498 0 c275 0 499 2 499 5 0 3 -119 180 -264 393 -145 213 -270 397
-277 409 -26 43 12 111 283 508 l259 380 -167 3 -167 2 6 43 c36 261 35 751
-2 1016 -150 1079 -700 2004 -1576 2654 -714 530 -1607 799 -2510 757z m436
-400 c472 -37 891 -150 1302 -352 373 -183 656 -386 952 -683 579 -579 923
-1304 1017 -2140 23 -211 15 -614 -18 -852 l-6 -43 -288 0 -289 0 29 79 c65
178 94 439 71 631 -67 550 -437 1012 -950 1189 -375 129 -789 95 -1138 -95
-308 -167 -557 -464 -667 -794 -60 -182 -71 -252 -70 -465 0 -205 15 -302 69
-458 14 -40 25 -77 25 -80 0 -4 -133 -7 -295 -7 l-295 0 21 52 c11 28 31 95
44 147 201 808 -317 1608 -1138 1758 -126 23 -361 22 -487 -2 -331 -62 -632
-238 -840 -490 -314 -382 -414 -904 -261 -1362 17 -50 31 -94 31 -97 0 -3
-128 -6 -284 -6 l-284 0 -6 33 c-33 184 -43 672 -18 882 121 1012 616 1875
1416 2470 672 500 1530 749 2357 685z m-1688 -2505 c431 -75 767 -419 837
-857 18 -110 8 -311 -19 -418 -12 -47 -44 -131 -71 -188 l-49 -102 -873 2
-873 3 -47 95 c-212 430 -92 957 288 1260 221 176 526 254 807 205z m3218 0
c405 -71 712 -359 826 -775 26 -96 25 -387 -1 -485 -23 -88 -69 -205 -103
-262 l-25 -43 -871 2 -872 3 -42 85 c-173 346 -134 772 99 1081 230 306 617
460 989 394z m-3601 -1774 c112 -57 142 -117 149 -299 l6 -132 -97 0 -96 0 -4
110 c-3 103 -4 111 -30 136 -21 22 -36 27 -72 27 -54 0 -81 -20 -96 -72 -16
-58 -13 -804 3 -844 20 -45 41 -60 92 -61 36 -1 50 4 72 27 27 27 28 30 31
162 l4 135 94 0 94 0 0 -139 c0 -161 -14 -219 -67 -281 -72 -83 -214 -114
-348 -75 -105 30 -165 112 -184 249 -14 101 -14 721 0 822 15 110 67 201 128
226 88 36 100 38 186 35 71 -2 100 -8 135 -26z m2240 2 c55 -25 102 -71 132
-132 23 -46 23 -46 23 -516 0 -459 -1 -471 -21 -516 -43 -90 -117 -142 -225
-156 -160 -21 -280 34 -341 156 -23 46 -23 50 -26 491 -3 402 -1 451 14 504
25 81 89 151 164 177 73 26 214 22 280 -8z m698 12 c105 -32 162 -112 181
-258 7 -48 9 -92 6 -97 -3 -6 -49 -10 -101 -10 l-94 0 0 53 c0 96 -52 156
-124 143 -18 -4 -44 -18 -57 -32 -20 -22 -24 -36 -24 -92 0 -99 22 -135 183
-297 153 -153 190 -211 212 -323 7 -36 10 -90 7 -125 -19 -200 -119 -297 -308
-298 -195 -1 -291 94 -305 304 l-7 97 102 0 101 0 0 -70 c0 -88 17 -124 65
-140 45 -15 86 -6 116 26 21 23 24 35 24 107 -1 112 -17 140 -184 305 -176
175 -204 225 -209 375 -4 112 7 166 49 231 29 46 96 93 152 106 55 13 161 11
215 -5z m-4316 -272 l3 -268 81 165 c44 91 102 211 129 268 l49 102 104 0 103
0 -120 -235 c-67 -129 -121 -241 -121 -248 0 -8 32 -119 71 -248 90 -299 129
-426 139 -464 5 -16 13 -46 19 -65 6 -19 11 -38 11 -43 0 -4 -48 -6 -107 -5
l-107 3 -48 165 c-27 91 -62 210 -79 265 -17 55 -33 108 -35 118 -8 26 -18 15
-58 -67 l-36 -75 0 -205 0 -206 -105 0 -105 0 0 655 0 655 105 0 105 0 2 -267z
m778 -388 l0 -655 -100 0 -100 0 0 655 0 655 100 0 100 0 0 -655z m1092 388
l3 -268 21 45 c12 25 54 113 94 195 40 83 87 183 106 223 l33 72 100 0 c76 0
101 -3 101 -13 0 -7 -4 -17 -9 -22 -22 -24 -221 -434 -221 -456 0 -14 11 -58
24 -99 51 -159 216 -711 216 -721 0 -2 -48 -3 -107 -1 l-108 3 -84 285 c-46
156 -87 284 -90 284 -4 0 -23 -34 -44 -75 l-37 -75 0 -213 0 -212 -105 3 -105
3 0 655 0 654 105 0 105 0 2 -267z m1011 247 c72 -27 120 -76 147 -147 20 -53
21 -73 18 -238 -3 -178 -3 -181 -33 -235 -52 -96 -149 -140 -308 -140 l-57 0
0 -267 0 -268 -105 3 -105 3 0 655 0 654 195 0 c171 0 201 -2 248 -20z m2335
-67 l-3 -88 -107 -3 -108 -3 0 -564 0 -565 -105 0 -105 0 0 565 0 565 -105 0
-105 0 0 90 0 90 320 0 321 0 -3 -87z m662 -3 l0 -90 -177 -2 -178 -3 -3 -172
-2 -172 142 -3 143 -3 3 -92 3 -93 -146 0 -145 0 0 -205 0 -205 180 0 180 0 0
-90 0 -90 -280 0 -280 0 0 655 0 655 280 0 280 0 0 -90z m573 70 c125 -47 160
-124 155 -337 -3 -121 -6 -144 -27 -186 -13 -27 -38 -58 -57 -70 -19 -12 -34
-25 -34 -29 0 -3 16 -15 34 -26 73 -43 95 -137 96 -407 0 -93 4 -186 9 -205
l8 -35 -106 5 c-102 5 -105 6 -112 30 -4 14 -7 116 -8 228 -1 226 -8 260 -60
286 -17 9 -55 16 -86 16 l-55 0 0 -282 0 -283 -105 3 -105 3 0 655 0 654 200
0 c175 0 206 -2 253 -20z m-3416 -1567 c199 -340 308 -703 338 -1119 l5 -81
-31 -7 c-91 -18 -429 -1 -669 34 -615 90 -1206 349 -1698 743 -128 103 -373
339 -471 455 l-53 62 1264 0 1264 0 51 -87z m2891 77 c-8 -24 -223 -252 -324
-345 -283 -258 -537 -431 -874 -593 -187 -91 -350 -154 -525 -205 -119 -35
-311 -80 -392 -93 l-43 -7 0 71 c0 286 -133 800 -286 1104 -19 37 -34 70 -34
73 0 3 558 5 1241 5 788 0 1239 -4 1237 -10z"/>
<path d="M6222 5085 c-60 -26 -62 -39 -62 -480 0 -446 1 -454 66 -481 48 -20
100 -8 128 29 20 28 21 40 24 437 3 460 2 468 -62 495 -43 18 -52 18 -94 0z"/>
<path d="M5450 4875 l0 -205 59 0 c124 0 141 24 141 205 0 149 -10 179 -68
194 -20 6 -58 11 -84 11 l-48 0 0 -205z"/>
<path d="M9010 4891 l0 -191 58 0 c112 0 142 41 142 188 0 95 -13 145 -44 171
-9 7 -48 16 -86 19 l-70 5 0 -192z"/>
</g>
</svg>
